<?xml version="1.0" encoding="UTF-8"?>
<svg id="Layer_1" data-name="Layer 1" xmlns="http://www.w3.org/2000/svg" viewBox="0 0 3449.53 3449.53">
  <defs>
    <style>
      .cls-1, .cls-2 {
        fill: #d3742d;
      }

      .cls-3 {
        fill: #fff;
      }

      .cls-2 {
        font-family: MyriadPro-Regular, 'Myriad Pro';
        font-size: 7.97px;
      }

      .cls-4, .cls-5 {
        fill: #c16223;
        stroke: #231f20;
        stroke-miterlimit: 10;
      }

      .cls-5 {
        font-family: Recharge-Bold, Recharge;
        font-size: 132.87px;
        font-weight: 700;
      }
    </style>
  </defs>
  <text class="cls-5" transform="translate(1862.47 2372.35)"><tspan x="0" y="0">3d Generalist</tspan></text>
  <polygon class="cls-1" points="986.05 1148.27 986.05 1148.91 985.41 1148.91 986.05 1148.27"/>
  <text class="cls-2" transform="translate(2202.77 1587.13)"><tspan x="0" y="0">d3742d</tspan></text>
  <path class="cls-3" d="M1161.89,1812.36v81.1l-21.4-12.32-.47,323.15c0,1.09-.88,1.97-1.97,1.97h-489.73l.17-119.98-.02-115.02-.15-822.35h494.6v351.72l-74.01-50.08v-227.8h-82.86v164.42l-74.01-50.08v-114.34h-178.8v759.99h173.62v-239.19h17.69l-36.64-21.11v-81.1l114.46,66.06v81.1l-21.51-12.38v280.63h-173.06l1.67,75.5h256.65l.27-282.62h19.62l-38.59-22.24v-81.1l114.46,66.06Z"/>
  <g>
    <path class="cls-3" d="M1434.92,1418.38v81.1l-21.58-12.43v96.15h.65v74.56h-210.61v-508.86h210.61v157.63h-73.91v-83.07h-62.14v359.73h61.48v-127.54h19.62l-38.59-22.24v-81.1l114.46,66.06Z"/>
    <path class="cls-3" d="M1574.22,1418.38l-19.62-11.12v250.5h-74.56l.65-77.83v-201.45h22.24l-22.89-13.08v-.65l-18.97-11.12v-81.1l18.97,10.46v-134.08h74.56v177.25l19.62,11.12v81.1Z"/>
    <path class="cls-3" d="M1824.07,1223.47v434.29h-211.26v-508.86h211.26v74.56ZM1749.5,1583.2v-359.73h-62.14v359.73h62.14Z"/>
    <path class="cls-3" d="M2000.01,1148.91h74.56v211.91l-35.97,20.28,35.97,20.93v255.74h-74.56v-200.8h22.89l-1.31-.65-21.58-12.43-62.14-35.97v249.85h-74.56v-508.86h136.7ZM2000.01,1362.13v-138.66h-62.14v102.69l62.14,35.97Z"/>
    <path class="cls-3" d="M2345.35,1418.38v81.1l-21.58-12.43v96.15h.65v74.56h-210.61v-508.86h210.61v157.63h-73.91v-83.07h-62.14v359.73h61.48v-127.54h19.62l-38.59-22.24v-81.1l114.46,66.06Z"/>
    <path class="cls-3" d="M2484.65,1418.38l-19.62-11.12v250.5h-74.56l.65-77.83v-201.45h22.24l-22.89-13.08v-.65l-18.97-11.12v-81.1l18.97,10.46v-134.08h74.56v177.25l19.62,11.12v81.1Z"/>
    <path class="cls-3" d="M1434.92,1967.37v81.1l-21.58-12.43v96.15h.65v74.56h-210.61v-508.86h210.61v157.63h-73.91v-83.07h-62.14v359.73h61.48v-127.54h19.62l-38.59-22.24v-81.1l114.46,66.06Z"/>
    <path class="cls-3" d="M1685.41,1697.9v448.03l-23.55,13.08-82.41,47.75-93.53-54.29-11.77-6.54v-448.03h74.56v409.44l30.74,18.31,31.39-18.31v-409.44h74.56Z"/>
    <path class="cls-3" d="M1861.35,1697.9h74.56v508.86h-74.56v-200.8h22.89l-1.31-.65-21.58-12.43-62.14-35.97v249.85h-74.56v-508.86h136.7ZM1861.35,1911.12v-138.66h-62.14v102.69l62.14,35.97Z"/>
    <path class="cls-3" d="M2186.42,1697.9v114.46l-136.7,78.49v241.35h62.14v-100.72l74.56,42.51v132.77h-211.26v-355.15l136.7-79.14h-136.7v-74.56h211.26Z"/>
    <path class="cls-3" d="M2362.36,1697.9h74.56v508.86h-74.56v-200.8h22.89l-1.31-.65-21.58-12.43-62.14-35.97v249.85h-74.56v-508.86h136.7ZM2362.36,1911.12v-138.66h-62.14v102.69l62.14,35.97Z"/>
    <path class="cls-3" d="M2687.42,1697.9v448.03l-23.55,13.08-82.41,47.75-93.53-54.29-11.77-6.54v-448.03h74.56v409.44l30.74,18.31,31.39-18.31v-409.44h74.56Z"/>
    <path class="cls-3" d="M2863.36,1697.9h74.56v508.86h-74.56v-200.8h22.89l-1.31-.65-21.58-12.43-62.14-35.97v249.85h-74.56v-508.86h136.7ZM2863.36,1911.12v-138.66h-62.14v102.69l62.14,35.97Z"/>
  </g>
  <rect class="cls-3" x="769.36" y="1323.86" width="100.32" height="14.51"/>
  <path class="cls-4" d="M869.68,1353.19c0,19.03-10.61,35.6-26.24,44.09-7.12,3.87-15.26,6.06-23.92,6.06s-16.81-2.19-23.92-6.06c-15.63-8.49-26.24-25.05-26.24-44.09h100.32Z"/>
</svg>